<?xml version="1.0" standalone="no"?>
<!DOCTYPE svg PUBLIC "-//W3C//DTD SVG 20010904//EN"
 "http://www.w3.org/TR/2001/REC-SVG-20010904/DTD/svg10.dtd">
<svg version="1.0" xmlns="http://www.w3.org/2000/svg"
 width="192.000000pt" height="192.000000pt" viewBox="0 0 192.000000 192.000000"
 preserveAspectRatio="xMidYMid meet">
<metadata>
Created by potrace 1.11, written by Peter Selinger 2001-2013
</metadata>
<g transform="translate(0.000000,192.000000) scale(0.100000,-0.100000)"
fill="#000000" stroke="none">
<path d="M312 1612 l-312 -307 0 -652 0 -653 790 0 c746 0 790 1 788 17 -2 10
1 41 6 70 14 89 -39 224 -109 277 -19 15 -34 32 -32 37 1 6 -19 17 -44 25 -31
9 -48 21 -52 34 -3 13 -39 36 -109 70 -56 27 -109 54 -115 60 -23 19 -14 50
27 99 22 26 40 51 40 55 0 4 10 22 23 39 13 18 32 51 42 75 17 40 19 41 36 26
17 -16 19 -15 25 2 16 54 34 82 50 80 19 -1 42 51 43 99 1 17 6 36 11 41 8 8
8 30 1 72 -5 34 -7 77 -4 95 3 22 -1 48 -13 72 -17 37 -17 38 7 83 26 48 294
336 394 422 33 29 64 56 70 61 5 5 -254 9 -620 8 l-630 0 -313 -307z m671 -18
c-5 -15 6 -16 105 -13 108 4 110 4 84 -13 -26 -17 -26 -18 -5 -18 29 0 93 -32
90 -45 -2 -5 17 -23 42 -40 62 -43 128 -175 87 -175 -14 0 -15 -3 -5 -22 26
-48 12 -272 -15 -262 -8 3 -24 -17 -42 -50 -15 -30 -32 -52 -36 -50 -4 2 7 27
25 55 26 43 32 63 34 123 l3 71 -15 -45 c-8 -25 -25 -58 -39 -75 l-23 -29 -13
72 c-14 74 -18 80 -38 60 -9 -9 -12 -6 -12 15 0 20 -4 25 -17 20 -11 -4 -14
-3 -9 5 16 26 -48 -1 -116 -49 -17 -12 -28 -15 -30 -8 -2 7 -24 -1 -56 -20
-29 -17 -52 -26 -52 -21 0 5 4 11 9 14 5 3 14 20 20 36 10 29 9 30 -11 19 -12
-7 -49 -30 -82 -53 -34 -23 -80 -50 -103 -60 -39 -17 -41 -20 -25 -32 23 -18
33 -17 26 1 -8 20 10 19 26 0 18 -22 52 -15 66 13 7 15 14 20 18 13 13 -21 27
-12 15 10 -9 19 -8 20 10 14 12 -3 36 2 61 15 23 12 39 17 36 12 -12 -20 19
-18 73 5 31 12 64 23 73 23 9 0 23 6 30 14 12 11 18 10 43 -10 25 -20 28 -29
29 -78 1 -66 12 -70 55 -21 17 20 31 31 31 25 0 -22 -28 -76 -49 -94 -11 -11
-21 -24 -21 -30 0 -30 -66 -146 -118 -205 -76 -90 -123 -123 -181 -129 -57 -5
-133 29 -175 78 -32 39 -86 137 -116 212 -13 31 -27 55 -32 52 -10 -6 -38 57
-37 83 0 11 5 6 11 -12 6 -16 12 -32 14 -33 1 -2 26 22 56 53 56 60 138 122
223 167 27 15 42 27 32 28 -25 0 -82 -30 -152 -82 -65 -48 -135 -83 -135 -69
0 6 14 19 31 31 44 32 26 38 -21 6 -22 -14 -44 -26 -49 -26 -5 0 -12 -8 -15
-18 -4 -10 -13 -19 -21 -19 -17 0 -13 47 11 132 9 32 11 51 4 53 -6 2 -8 8 -4
13 3 5 8 21 10 36 3 14 11 38 19 54 19 36 19 49 0 49 -8 0 -15 5 -15 10 0 6 7
10 15 10 8 0 24 14 34 30 40 67 132 128 241 160 70 21 92 27 97 29 1 1 0 -6
-4 -15z m150 -472 c-21 -7 -42 -10 -47 -8 -6 2 4 7 22 11 19 5 36 14 39 22 5
12 7 12 14 1 6 -9 -2 -17 -28 -26z m-213 -27 c-7 -9 -15 -13 -18 -10 -3 2 1
11 8 20 7 9 15 13 18 10 3 -2 -1 -11 -8 -20z m-230 -49 c0 -2 -8 -10 -17 -17
-16 -13 -17 -12 -4 4 13 16 21 21 21 13z m-49 -39 c-8 -8 -11 -7 -11 4 0 9 3
19 7 23 4 4 9 2 11 -4 3 -7 -1 -17 -7 -23z m157 -410 c3 -26 2 -27 -45 -27
l-48 0 34 30 c40 35 55 34 59 -3z m299 -39 c6 -35 10 -63 9 -64 -44 -39 -134
-104 -143 -104 -7 0 -44 20 -81 45 l-67 45 2 57 c1 32 5 58 10 58 4 0 33 -9
63 -19 62 -20 118 -12 162 24 12 11 26 19 29 20 3 0 10 -28 16 -62z"/>
<path d="M1328 1388 c5 -5 16 -8 23 -6 8 3 3 7 -10 11 -17 4 -21 3 -13 -5z"/>
<path d="M636 1248 c-26 -36 -20 -48 23 -48 22 0 43 5 47 12 5 8 -3 9 -29 5
-41 -6 -44 -2 -21 31 8 12 11 22 5 22 -5 0 -17 -10 -25 -22z"/>
<path d="M1083 1081 c-23 -11 -46 -29 -53 -40 -14 -27 1 -28 18 -1 12 19 33
28 31 13 -4 -27 4 -45 26 -55 36 -16 59 5 52 49 -6 37 1 40 44 17 17 -8 33
-13 36 -10 7 6 -46 32 -82 40 -20 4 -45 -1 -72 -13z"/>
<path d="M962 935 c0 -16 2 -22 5 -12 2 9 2 23 0 30 -3 6 -5 -1 -5 -18z"/>
<path d="M928 889 c-10 -5 -18 -15 -18 -21 0 -6 8 -4 18 5 12 11 22 13 32 7
24 -15 37 -11 16 5 -23 17 -25 18 -48 4z"/>
<path d="M1010 745 c-35 -15 -75 -24 -108 -25 -33 0 -51 -4 -47 -10 13 -22 90
-10 160 24 80 40 77 47 -5 11z"/>
<path d="M945 660 c-28 -7 -28 -8 -5 -9 14 0 32 4 40 9 17 11 8 11 -35 0z"/>
</g>
</svg>
