<svg id="visual" viewBox="0 0 960 540" width="1080" height="300" xmlns="http://www.w3.org/2000/svg" xmlns:xlink="http://www.w3.org/1999/xlink" version="1.1">
    <path d="M0 384L14.5 381.5C29 379 58 374 87.2 373.5C116.3 373 145.7 377 174.8 380.2C204 383.3 233 385.7 262 390.5C291 395.3 320 402.7 349 407C378 411.3 407 412.7 436.2 405.8C465.3 399 494.7 384 523.8 381.5C553 379 582 389 611 395.2C640 401.3 669 403.7 698 407.7C727 411.7 756 417.3 785.2 412.8C814.3 408.3 843.7 393.7 872.8 385.8C902 378 931 377 945.5 376.5L960 376L960 541L945.5 541C931 541 902 541 872.8 541C843.7 541 814.3 541 785.2 541C756 541 727 541 698 541C669 541 640 541 611 541C582 541 553 541 523.8 541C494.7 541 465.3 541 436.2 541C407 541 378 541 349 541C320 541 291 541 262 541C233 541 204 541 174.8 541C145.7 541 116.3 541 87.2 541C58 541 29 541 14.5 541L0 541Z" fill="#008a90"></path><path d="M0 434L14.5 431.8C29 429.7 58 425.3 87.2 426C116.3 426.7 145.7 432.3 174.8 432.3C204 432.3 233 426.7 262 423.3C291 420 320 419 349 420.8C378 422.7 407 427.3 436.2 430.8C465.3 434.3 494.7 436.7 523.8 431.8C553 427 582 415 611 415.8C640 416.7 669 430.3 698 436.7C727 443 756 442 785.2 440.5C814.3 439 843.7 437 872.8 433.2C902 429.3 931 423.7 945.5 420.8L960 418L960 541L945.5 541C931 541 902 541 872.8 541C843.7 541 814.3 541 785.2 541C756 541 727 541 698 541C669 541 640 541 611 541C582 541 553 541 523.8 541C494.7 541 465.3 541 436.2 541C407 541 378 541 349 541C320 541 291 541 262 541C233 541 204 541 174.8 541C145.7 541 116.3 541 87.2 541C58 541 29 541 14.5 541L0 541Z" fill="#009299"></path><path d="M0 438L14.5 440.5C29 443 58 448 87.2 448.5C116.3 449 145.7 445 174.8 443.3C204 441.7 233 442.3 262 442C291 441.7 320 440.3 349 440.3C378 440.3 407 441.7 436.2 446.5C465.3 451.3 494.7 459.7 523.8 461.3C553 463 582 458 611 457.7C640 457.3 669 461.7 698 464.3C727 467 756 468 785.2 465.5C814.3 463 843.7 457 872.8 454.7C902 452.3 931 453.7 945.5 454.3L960 455L960 541L945.5 541C931 541 902 541 872.8 541C843.7 541 814.3 541 785.2 541C756 541 727 541 698 541C669 541 640 541 611 541C582 541 553 541 523.8 541C494.7 541 465.3 541 436.2 541C407 541 378 541 349 541C320 541 291 541 262 541C233 541 204 541 174.8 541C145.7 541 116.3 541 87.2 541C58 541 29 541 14.5 541L0 541Z" fill="#009ba2"></path><path d="M0 471L14.5 470.7C29 470.3 58 469.7 87.2 471.2C116.3 472.7 145.7 476.3 174.8 477.2C204 478 233 476 262 477C291 478 320 482 349 479.7C378 477.3 407 468.7 436.2 468.7C465.3 468.7 494.7 477.3 523.8 481C553 484.7 582 483.3 611 484.5C640 485.7 669 489.3 698 490.3C727 491.3 756 489.7 785.2 489.5C814.3 489.3 843.7 490.7 872.8 490.2C902 489.7 931 487.3 945.5 486.2L960 485L960 541L945.5 541C931 541 902 541 872.8 541C843.7 541 814.3 541 785.2 541C756 541 727 541 698 541C669 541 640 541 611 541C582 541 553 541 523.8 541C494.7 541 465.3 541 436.2 541C407 541 378 541 349 541C320 541 291 541 262 541C233 541 204 541 174.8 541C145.7 541 116.3 541 87.2 541C58 541 29 541 14.5 541L0 541Z" fill="#00a4ab"></path><path d="M0 514L14.5 511.3C29 508.7 58 503.3 87.2 502.8C116.3 502.3 145.7 506.7 174.8 505.7C204 504.7 233 498.3 262 498.5C291 498.7 320 505.3 349 508C378 510.7 407 509.3 436.2 507.7C465.3 506 494.7 504 523.8 502.7C553 501.3 582 500.7 611 502.2C640 503.7 669 507.3 698 506.3C727 505.3 756 499.7 785.2 499.7C814.3 499.7 843.7 505.3 872.8 507C902 508.7 931 506.3 945.5 505.2L960 504L960 541L945.5 541C931 541 902 541 872.8 541C843.7 541 814.3 541 785.2 541C756 541 727 541 698 541C669 541 640 541 611 541C582 541 553 541 523.8 541C494.7 541 465.3 541 436.2 541C407 541 378 541 349 541C320 541 291 541 262 541C233 541 204 541 174.8 541C145.7 541 116.3 541 87.2 541C58 541 29 541 14.5 541L0 541Z" fill="#00adb5"></path></svg>